# xmcd CD database file
#
# Track frame offsets:
#	150
#	13591
#	36536
#	54686
#	69618
#	78263
#	96490
#	117971
#	133718
#	156825
#	177897
#	192149
#	207845
#	227673
#	245434
#	266982
#	284378
#	301968
#	322481
#	340253
#
# Disc length: 4751 seconds
#
# Revision: 0
# Processed by: cddbd v1.5.1PL0 Copyright (c) Steve Scherf et al.
# Submitted via: CDex 1.50Beta7
#
DISCID=30128d14
DTITLE=Secret Garden -  Para ouvir e sonhar
DYEAR=2005
DGENRE=New Age
TTITLE0=adagio
TTITLE1=mais uma vez na lua vermelha
TTITLE2=duo
TTITLE3=serenata para a primavera
TTITLE4=chuva
TTITLE5=convite
TTITLE6=em nossas lagrimas
TTITLE7=lar
TTITLE8=tu me animas
TTITLE9=aquarela
TTITLE10=noturno
TTITLE11=cordas do coracao
TTITLE12=appasionata
TTITLE13=simplicidade
TTITLE14=ondas verdes
TTITLE15=passacalha
TTITLE16=pastoralle
TTITLE17=porta para o alvorecer
TTITLE18=celebracao
TTITLE19=cancao para um jardim secreto
EXTD=YEAR: 2005
EXTT0=
EXTT1=
EXTT2=
EXTT3=
EXTT4=
EXTT5=
EXTT6=
EXTT7=
EXTT8=
EXTT9=
EXTT10=
EXTT11=
EXTT12=
EXTT13=
EXTT14=
EXTT15=
EXTT16=
EXTT17=
EXTT18=
EXTT19=
PLAYORDER=
